<?xml version="1.0" encoding="utf-8"?>
<svg version="1.1" xmlns:xlink="http://www.w3.org/1999/xlink" width="23px" height="20px" xmlns="http://www.w3.org/2000/svg">
  <g transform="matrix(1 0 0 1 -9 -12 )">
    <path d="M 12.064732142857142 19.765625  C 11.910714285714286 19.921875  11.722470238095239 20  11.5 20  C 11.277529761904763 20  11.089285714285715 19.921875  10.935267857142856 19.765625  L 2.9263392857142856 11.927083333333336  C 2.8407738095238098 11.85763888888889  2.723121279761905 11.744791666666664  2.573381696428571 11.588541666666664  C 2.423642113095238 11.432291666666664  2.186197916666667 11.148003472222223  1.8610491071428572 10.735677083333336  C 1.5359002976190477 10.323350694444443  1.2449776785714286 9.900173611111109  0.98828125 9.466145833333332  C 0.7315848214285714 9.032118055555555  0.5026971726190477 8.506944444444445  0.3016183035714286 7.890625  C 0.10053943452380952 7.274305555555554  0 6.675347222222221  0 6.09375  C 0 4.184027777777777  0.5433407738095237 2.690972222222221  1.6300223214285714 1.6145833333333326  C 2.7167038690476195 0.5381944444444442  4.218377976190476 0  6.135044642857143 0  C 6.665550595238095 0  7.206752232142857 0.09331597222222099  7.758649553571429 0.2799479166666674  C 8.310546875 0.4665798611111094  8.823939732142856 0.718315972222221  9.298828125 1.03515625  C 9.773716517857144 1.3519965277777768  10.18229166666667 1.6493055555555536  10.524553571428571 1.9270833333333326  C 10.866815476190478 2.2048611111111094  11.191964285714285 2.5  11.5 2.8125  C 11.808035714285714 2.5  12.133184523809526 2.2048611111111094  12.475446428571429 1.9270833333333326  C 12.817708333333336 1.6493055555555536  13.226283482142858 1.3519965277777768  13.701171875 1.03515625  C 14.176060267857142 0.718315972222221  14.689453125 0.4665798611111094  15.241350446428571 0.2799479166666674  C 15.793247767857142 0.09331597222222099  16.334449404761905 0  16.864955357142858 0  C 18.781622023809526 0  20.283296130952383 0.5381944444444442  21.36997767857143 1.6145833333333326  C 22.456659226190478 2.690972222222221  23 4.184027777777777  23 6.09375  C 23 8.012152777777777  22.020275297619047 9.965277777777777  20.060825892857142 11.953125  L 12.064732142857142 19.765625  Z " fill-rule="nonzero" fill="#e01e1e" stroke="none" transform="matrix(1 0 0 1 9 12 )" />
  </g>
</svg>