<?xml version="1.0" encoding="utf-8"?>
<svg version="1.1" xmlns:xlink="http://www.w3.org/1999/xlink" width="20px" height="24px" xmlns="http://www.w3.org/2000/svg">
  <g transform="matrix(1 0 0 1 -13 -9 )">
    <path d="M 20 12  C 20 12.185328185328217  19.891021085050923 12.344916344916328  19.673063255152808 12.478764478764514  L 0.796019900497507 23.876447876447855  C 0.5780620705993913 24.01029601029604  0.3909026297085818 24.025740025740014  0.23454157782515692 23.922779922779952  C 0.07818052594173204 23.819819819819806  0 23.634491634491678  0 23.366795366795397  L 0 17.05263157894733  L 0 0.6332046332046047  C 0 0.3655083655083217  0.07818052594173204 0.18018018018019574  0.23454157782515692 0.07722007722004492  C 0.3909026297085818 -0.025740025740014973  0.5780620705993913 -0.010296010296042369  0.796019900497507 0.12355212355214462  L 19.673063255152808 11.521235521235484  C 19.891021085050923 11.655083655083672  20 11.814671814671783  20 12  Z " fill-rule="nonzero" fill="#000000" stroke="none" transform="matrix(1 0 0 1 13 9 )" />
  </g>
</svg>