<?xml version="1.0" encoding="utf-8"?>
<svg version="1.1" xmlns:xlink="http://www.w3.org/1999/xlink" width="18px" height="20px" xmlns="http://www.w3.org/2000/svg">
  <g transform="matrix(1 0 0 1 -11 -10 )">
    <path d="M 17.77734375 0.2473958333333326  C 17.92578125 0.4123263888888862  18 0.6076388888888862  18 0.8333333333333326  L 18 19.166666666666668  C 18 19.39236111111111  17.92578125 19.58767361111111  17.77734375 19.752604166666668  C 17.628906250000004 19.91753472222222  17.453125000000004 20  17.25 20  L 11.25 20  C 11.046875 20  10.87109375 19.91753472222222  10.72265625 19.752604166666668  C 10.57421875 19.58767361111111  10.5 19.39236111111111  10.5 19.166666666666668  L 10.5 0.8333333333333326  C 10.5 0.6076388888888862  10.57421875 0.4123263888888862  10.72265625 0.2473958333333326  C 10.87109375 0.08246527777777679  11.046875 0  11.25 0  L 17.25 0  C 17.453125000000004 0  17.628906250000004 0.08246527777777679  17.77734375 0.2473958333333326  Z M 7.27734375 0.2473958333333326  C 7.425781250000001 0.4123263888888862  7.5 0.6076388888888862  7.5 0.8333333333333326  L 7.5 19.166666666666668  C 7.5 19.39236111111111  7.425781250000001 19.58767361111111  7.27734375 19.752604166666668  C 7.128906250000001 19.91753472222222  6.953125000000001 20  6.75 20  L 0.75 20  C 0.546875 20  0.37109375 19.91753472222222  0.22265625 19.752604166666668  C 0.07421875 19.58767361111111  0 19.39236111111111  0 19.166666666666668  L 0 0.8333333333333326  C 0 0.6076388888888862  0.07421875 0.4123263888888862  0.22265625 0.2473958333333326  C 0.37109375 0.08246527777777679  0.546875 0  0.75 0  L 6.75 0  C 6.953125000000001 0  7.128906250000001 0.08246527777777679  7.27734375 0.2473958333333326  Z " fill-rule="nonzero" fill="#ffffff" stroke="none" transform="matrix(1 0 0 1 11 10 )" />
  </g>
</svg>