<?xml version="1.0" encoding="utf-8"?>
<svg version="1.1" xmlns:xlink="http://www.w3.org/1999/xlink" width="28px" height="8px" xmlns="http://www.w3.org/2000/svg">
  <g transform="matrix(1 0 0 1 -282 -201 )">
    <path d="M 7.079545454545455 0.583333333333333  C 7.450757575757574 0.9722222222222188  7.636363636363636 1.4444444444444429  7.636363636363636 2  L 7.636363636363636 6  C 7.636363636363636 6.5555555555555545  7.450757575757574 7.027777777777776  7.079545454545455 7.416666666666667  C 6.708333333333334 7.8055555555555545  6.257575757575758 8  5.7272727272727275 8  L 1.909090909090909 8  C 1.378787878787879 8  0.9280303030303032 7.8055555555555545  0.5568181818181818 7.416666666666667  C 0.18560606060606058 7.027777777777776  0 6.5555555555555545  0 6  L 0 2  C 0 1.4444444444444429  0.18560606060606058 0.9722222222222188  0.5568181818181818 0.583333333333333  C 0.9280303030303032 0.19444444444444287  1.378787878787879 0  1.909090909090909 0  L 5.7272727272727275 0  C 6.257575757575758 0  6.708333333333334 0.19444444444444287  7.079545454545455 0.583333333333333  Z M 17.261363636363637 0.583333333333333  C 17.632575757575758 0.9722222222222188  17.818181818181817 1.4444444444444429  17.818181818181817 2  L 17.818181818181817 6  C 17.818181818181817 6.5555555555555545  17.632575757575758 7.027777777777776  17.261363636363637 7.416666666666667  C 16.89015151515152 7.8055555555555545  16.43939393939394 8  15.90909090909091 8  L 12.090909090909092 8  C 11.56060606060606 8  11.109848484848486 7.8055555555555545  10.738636363636363 7.416666666666667  C 10.367424242424244 7.027777777777776  10.181818181818182 6.5555555555555545  10.181818181818182 6  L 10.181818181818182 2  C 10.181818181818182 1.4444444444444429  10.367424242424244 0.9722222222222188  10.738636363636363 0.583333333333333  C 11.109848484848486 0.19444444444444287  11.56060606060606 0  12.090909090909092 0  L 15.90909090909091 0  C 16.43939393939394 0  16.89015151515152 0.19444444444444287  17.261363636363637 0.583333333333333  Z M 27.443181818181817 0.583333333333333  C 27.81439393939394 0.9722222222222188  28 1.4444444444444429  28 2  L 28 6  C 28 6.5555555555555545  27.81439393939394 7.027777777777776  27.443181818181817 7.416666666666667  C 27.0719696969697 7.8055555555555545  26.62121212121212 8  26.09090909090909 8  L 22.272727272727273 8  C 21.742424242424246 8  21.291666666666668 7.8055555555555545  20.920454545454547 7.416666666666667  C 20.549242424242426 7.027777777777776  20.363636363636363 6.5555555555555545  20.363636363636363 6  L 20.363636363636363 2  C 20.363636363636363 1.4444444444444429  20.549242424242426 0.9722222222222188  20.920454545454547 0.583333333333333  C 21.291666666666668 0.19444444444444287  21.742424242424246 0  22.272727272727273 0  L 26.09090909090909 0  C 26.62121212121212 0  27.0719696969697 0.19444444444444287  27.443181818181817 0.583333333333333  Z " fill-rule="nonzero" fill="#b1b8cf" stroke="none" transform="matrix(1 0 0 1 282 201 )" />
  </g>
</svg>